REM DIRINDEX 1\2\6,1\2\7,1\2\8,1\3\9,1\3\10,1\3\11,1\4\12,1\4\13,1\4\14,1\5\15,1\5\16,1\5\17,1\5\18
REM DIRNAME folder01,folder02,folder03,folder04,folder05,folder06,folder07,folder08,folder09,folder10,folder11,folder12,folder13,folder14,folder15,folder16,folder17,folder18
TITLE ""
FILE "" MP3
  TRACK 01 AUDIO
    TITLE "16:cjc019_6387"
    INDEX 01 00:00:00
  TRACK 02 AUDIO
    TITLE "0:"
    INDEX 01 00:01:11
  TRACK 03 AUDIO
    TITLE "18:cjc019_6388"
    INDEX 01 00:01:64
  TRACK 04 AUDIO
    TITLE "0:"
    INDEX 01 00:03:06
  TRACK 05 AUDIO
    TITLE "17:cjc019_6389"
    INDEX 01 00:03:57
  TRACK 06 AUDIO
    TITLE "0:"
    INDEX 01 00:05:01
  TRACK 07 AUDIO
    TITLE "16:cjc019_6390"
    INDEX 01 00:06:63
  TRACK 08 AUDIO
    TITLE "0:"
    INDEX 01 00:08:26
  TRACK 09 AUDIO
    TITLE "18:cjc019_6391"
    INDEX 01 00:09:08
  TRACK 10 AUDIO
    TITLE "0:"
    INDEX 01 00:13:02
  TRACK 11 AUDIO
    TITLE "17:cjc019_6392"
    INDEX 01 00:13:59
  TRACK 12 AUDIO
    TITLE "0:"
    INDEX 01 00:15:21
  TRACK 13 AUDIO
    TITLE "16:cjc019_6393"
    INDEX 01 00:17:04
  TRACK 14 AUDIO
    TITLE "0:"
    INDEX 01 00:18:21
  TRACK 15 AUDIO
    TITLE "18:cjc019_6394"
    INDEX 01 00:19:03
  TRACK 16 AUDIO
    TITLE "0:"
    INDEX 01 00:20:69
  TRACK 17 AUDIO
    TITLE "17:cjc019_6395"
    INDEX 01 00:21:51
  TRACK 18 AUDIO
    TITLE "0:"
    INDEX 01 00:22:66
  TRACK 19 AUDIO
    TITLE "16:cjc019_6396"
    INDEX 01 00:24:39
  TRACK 20 AUDIO
    TITLE "0:"
    INDEX 01 00:25:72
  TRACK 21 AUDIO
    TITLE "18:cjc019_6397"
    INDEX 01 00:26:66
  TRACK 22 AUDIO
    TITLE "0:"
    INDEX 01 00:29:11
  TRACK 23 AUDIO
    TITLE "17:cjc019_6398"
    INDEX 01 00:29:66
  TRACK 24 AUDIO
    TITLE "0:"
    INDEX 01 00:31:22
  TRACK 25 AUDIO
    TITLE "16:cjc019_6399"
    INDEX 01 00:33:07
  TRACK 26 AUDIO
    TITLE "0:"
    INDEX 01 00:34:36
  TRACK 27 AUDIO
    TITLE "18:cjc019_6400"
    INDEX 01 00:35:21
  TRACK 28 AUDIO
    TITLE "0:"
    INDEX 01 00:36:15
  TRACK 29 AUDIO
    TITLE "17:cjc019_6401"
    INDEX 01 00:36:68
  TRACK 30 AUDIO
    TITLE "0:"
    INDEX 01 00:38:22
  TRACK 31 AUDIO
    TITLE "16:cjc019_6402"
    INDEX 01 00:40:07
  TRACK 32 AUDIO
    TITLE "0:"
    INDEX 01 00:41:24
  TRACK 33 AUDIO
    TITLE "18:cjc019_6403"
    INDEX 01 00:42:08
  TRACK 34 AUDIO
    TITLE "0:"
    INDEX 01 00:44:46
  TRACK 35 AUDIO
    TITLE "17:cjc019_6404"
    INDEX 01 00:45:26
  TRACK 36 AUDIO
    TITLE "0:"
    INDEX 01 00:46:47
  TRACK 37 AUDIO
    TITLE "16:cjc019_6405"
    INDEX 01 00:48:40
  TRACK 38 AUDIO
    TITLE "0:"
    INDEX 01 00:49:51
  TRACK 39 AUDIO
    TITLE "18:cjc019_6406"
    INDEX 01 00:50:25
  TRACK 40 AUDIO
    TITLE "0:"
    INDEX 01 00:52:51
  TRACK 41 AUDIO
    TITLE "17:cjc019_6407"
    INDEX 01 00:53:31
  TRACK 42 AUDIO
    TITLE "0:"
    INDEX 01 00:54:48
  TRACK 43 AUDIO
    TITLE "16:cjc019_6408"
    INDEX 01 00:56:31
  TRACK 44 AUDIO
    TITLE "0:"
    INDEX 01 00:58:01
  TRACK 45 AUDIO
    TITLE "18:cjc019_6409"
    INDEX 01 00:58:58
  TRACK 46 AUDIO
    TITLE "0:"
    INDEX 01 01:01:58
  TRACK 47 AUDIO
    TITLE "17:cjc019_6410"
    INDEX 01 01:02:38
  TRACK 48 AUDIO
    TITLE "0:"
    INDEX 01 01:04:11
  TRACK 49 AUDIO
    TITLE "16:cjc019_6411"
    INDEX 01 01:05:69
  TRACK 50 AUDIO
    TITLE "0:"
    INDEX 01 01:07:08
  TRACK 51 AUDIO
    TITLE "18:cjc019_6412"
    INDEX 01 01:07:66
  TRACK 52 AUDIO
    TITLE "0:"
    INDEX 01 01:10:04
  TRACK 53 AUDIO
    TITLE "17:cjc019_6413"
    INDEX 01 01:10:59
  TRACK 54 AUDIO
    TITLE "0:"
    INDEX 01 01:12:01
  TRACK 55 AUDIO
    TITLE "16:cjc019_6414"
    INDEX 01 01:13:59
  TRACK 56 AUDIO
    TITLE "0:"
    INDEX 01 01:14:72
  TRACK 57 AUDIO
    TITLE "18:cjc019_6415"
    INDEX 01 01:15:56
  TRACK 58 AUDIO
    TITLE "0:"
    INDEX 01 01:19:17
  TRACK 59 AUDIO
    TITLE "17:cjc019_6416"
    INDEX 01 01:19:74
  TRACK 60 AUDIO
    TITLE "0:"
    INDEX 01 01:21:14
  TRACK 61 AUDIO
    TITLE "16:cjc019_6417"
    INDEX 01 01:22:68
  TRACK 62 AUDIO
    TITLE "0:"
    INDEX 01 01:24:08
  TRACK 63 AUDIO
    TITLE "18:cjc019_6418"
    INDEX 01 01:24:71
  TRACK 64 AUDIO
    TITLE "0:"
    INDEX 01 01:26:05
  TRACK 65 AUDIO
    TITLE "17:cjc019_6419"
    INDEX 01 01:26:56
  TRACK 66 AUDIO
    TITLE "0:"
    INDEX 01 01:27:73
  TRACK 67 AUDIO
    TITLE "16:cjc019_6420"
    INDEX 01 01:29:60
  TRACK 68 AUDIO
    TITLE "0:"
    INDEX 01 01:30:60
  TRACK 69 AUDIO
    TITLE "18:cjc019_6421"
    INDEX 01 01:31:39
  TRACK 70 AUDIO
    TITLE "0:"
    INDEX 01 01:33:70
  TRACK 71 AUDIO
    TITLE "17:cjc019_6422"
    INDEX 01 01:34:42
  TRACK 72 AUDIO
    TITLE "0:"
    INDEX 01 01:35:43
  TRACK 73 AUDIO
    TITLE "16:cjc019_6423"
    INDEX 01 01:37:28
  TRACK 74 AUDIO
    TITLE "0:"
    INDEX 01 01:38:63
  TRACK 75 AUDIO
    TITLE "18:cjc019_6424"
    INDEX 01 01:39:45
  TRACK 76 AUDIO
    TITLE "0:"
    INDEX 01 01:42:04
  TRACK 77 AUDIO
    TITLE "17:cjc019_6425"
    INDEX 01 01:42:59
  TRACK 78 AUDIO
    TITLE "0:"
    INDEX 01 01:44:17
  TRACK 79 AUDIO
    TITLE "16:cjc019_6426"
    INDEX 01 01:45:71
  TRACK 80 AUDIO
    TITLE "0:"
    INDEX 01 01:47:19
  TRACK 81 AUDIO
    TITLE "18:cjc019_6427"
    INDEX 01 01:47:72
  TRACK 82 AUDIO
    TITLE "0:"
    INDEX 01 01:49:24
  TRACK 83 AUDIO
    TITLE "17:cjc019_6428"
    INDEX 01 01:50:02
  TRACK 84 AUDIO
    TITLE "0:"
    INDEX 01 01:51:28
  TRACK 85 AUDIO
    TITLE "16:cjc019_6429"
    INDEX 01 01:53:14
  TRACK 86 AUDIO
    TITLE "0:"
    INDEX 01 01:54:50
  TRACK 87 AUDIO
    TITLE "18:cjc019_6430"
    INDEX 01 01:55:32
  TRACK 88 AUDIO
    TITLE "0:"
    INDEX 01 01:56:65
  TRACK 89 AUDIO
    TITLE "17:cjc019_6431"
    INDEX 01 01:57:47
  TRACK 90 AUDIO
    TITLE "0:"
    INDEX 01 01:59:12
  TRACK 91 AUDIO
    TITLE "16:cjc019_6432"
    INDEX 01 02:00:74
  TRACK 92 AUDIO
    TITLE "0:"
    INDEX 01 02:02:26
  TRACK 93 AUDIO
    TITLE "18:cjc019_6433"
    INDEX 01 02:03:08
  TRACK 94 AUDIO
    TITLE "0:"
    INDEX 01 02:05:36
  TRACK 95 AUDIO
    TITLE "17:cjc019_6434"
    INDEX 01 02:06:20
  TRACK 96 AUDIO
    TITLE "0:"
    INDEX 01 02:07:55
  TRACK 97 AUDIO
    TITLE "16:cjc019_6435"
    INDEX 01 02:09:40
  TRACK 98 AUDIO
    TITLE "0:"
    INDEX 01 02:10:53
  TRACK 99 AUDIO
    TITLE "18:cjc019_6436"
    INDEX 01 02:11:39
  TRACK 100 AUDIO
    TITLE "0:"
    INDEX 01 02:13:44
  TRACK 101 AUDIO
    TITLE "17:cjc019_6437"
    INDEX 01 02:14:20
  TRACK 102 AUDIO
    TITLE "0:"
    INDEX 01 02:15:39
  TRACK 103 AUDIO
    TITLE "16:cjc019_6438"
    INDEX 01 02:17:28
  TRACK 104 AUDIO
    TITLE "0:"
    INDEX 01 02:18:47
  TRACK 105 AUDIO
    TITLE "18:cjc019_6439"
    INDEX 01 02:19:37
  TRACK 106 AUDIO
    TITLE "0:"
    INDEX 01 02:21:61
  TRACK 107 AUDIO
    TITLE "17:cjc019_6440"
    INDEX 01 02:22:39
  TRACK 108 AUDIO
    TITLE "0:"
    INDEX 01 02:23:56
